<svg width="512" height="512" viewBox="0 0 512 512" fill="none" xmlns="http://www.w3.org/2000/svg">
<path d="M53 105.331C53.8423 106.194 55.3189 106.985 55.4267 107.932C56.4758 117.152 62.2147 123.343 69.1878 128.296C133.221 173.78 197.268 219.244 261.534 264.398C277.056 275.304 289.364 274.673 304.683 263.858C339.683 239.147 374.656 214.394 409.58 189.576C429.382 175.502 443.824 157.208 451.377 134.041C454.013 125.957 455.027 117.345 456.134 112.064C456.134 132.246 457.626 155.646 455.755 178.773C453.447 207.286 439.142 230.798 416.292 247.729C378.23 275.93 339.418 303.132 300.587 330.278C287.96 339.105 274.583 336.793 262.214 328.726C249.528 320.453 236.943 312.005 224.605 303.225C173.483 266.839 122.487 230.275 71.404 193.833C62.6523 187.589 55.74 180.209 54.1835 169.049C54.2203 150.916 54.285 132.782 54.2381 114.649C54.2343 113.272 53.4313 111.897 53 110.523C53 108.792 53 107.062 53 105.331Z" fill="black"/>
<path d="M53.0013 251.971C53.8068 252.513 55.2542 252.985 55.3214 253.606C56.439 263.888 63.3221 270.095 70.9486 275.666C100.299 297.106 129.494 318.763 159.165 339.752C192.015 362.988 225.292 385.623 258.441 408.436C277.435 421.508 287.973 421.562 306.939 408.245C340.58 384.624 374.013 360.704 407.633 337.05C427.67 322.952 442.856 305.057 450.733 281.73C453.657 273.069 454.844 263.824 458 254.828C457.132 279.936 457.881 305.232 454.959 330.1C451.83 356.743 437.205 378.501 415.734 394.337C377.963 422.196 339.491 449.116 301.072 476.089C287.606 485.543 273.878 482.736 261.037 474.152C244.312 462.969 227.623 451.716 211.243 440.042C164.028 406.391 116.976 372.512 69.8576 338.727C61.4358 332.688 55.414 325.109 54.11 314.472C54.1683 296.099 54.2495 277.728 54.2279 259.356C54.2267 258.193 53.4275 257.031 53 255.868C53.0013 254.567 53.0013 253.27 53.0013 251.971Z" fill="black"/>
<path d="M147.495 100.45C148.59 99.2022 149.155 98.2375 149.988 97.6536C170.362 83.3822 190.377 68.5498 211.272 55.0806C232.896 41.1431 256.775 32.9595 282.898 33.0002C307.246 33.0382 329.333 40.78 349.358 54.1553C359.038 60.6214 368.409 67.7577 376.998 75.5973C390.882 88.2693 392.319 110.837 381.272 126.009C378.803 129.399 376.234 129.619 372.993 127.453C368.495 124.449 364.031 121.387 359.454 118.507C313.237 89.4193 267.013 89.7328 220.803 118.545C213.459 123.123 206.188 127.826 198.706 132.167C197.204 133.04 194.334 133.384 193.051 132.533C178.63 122.963 164.39 113.122 150.131 103.31C149.276 102.723 148.683 101.76 147.495 100.45Z" fill="black"/>
</svg>
